<svg xmlns="http://www.w3.org/2000/svg" width="250" height="150" version="1.0" viewBox="0 0 187.5 112.5"><defs><clipPath id="a"><path d="M143 32h16.945v37H143Zm0 0"/></clipPath></defs><path fill="#00bf63" d="M86.79 47.645c.167-1.29 2.546-3.2 2.624-4.5.137-2.364-3.059-6.989-5.25-7.875-3.484-1.41-21.195-.75-21.195-.75-1.73-3.028 3.086-10.497 4.41-13.723 1.941-4.727 1.613-11-.844-14.223-3.004-3.937-8.515-4.199-8.629-2.437-.82 12.777-3.265 16.32-6.539 18.847-1.969 1.516-3.687 2.844-4.594 5.157-5.582 14.214-9.718 17.504-12.082 17.504h-1.574v32.304l16.543 3.078s20.535 1.946 27.004 0c2.035-.609 5.547-3.664 6.375-5.625.477-1.129-.184-3.793.375-4.879.828-1.609 4.32-3.625 4.316-5.812-.003-1.559-1.82-4.258-1.687-5.813.129-1.558 3.379-3.691 3.375-5.253-.008-1.633-2.844-4.375-2.629-6ZM29.965 77.164a3.15 3.15 0 0 1-3.152 3.148h-9.454a3.15 3.15 0 0 1-3.152-3.148V47.223a3.15 3.15 0 0 1 3.152-3.153h9.453a3.15 3.15 0 0 1 3.153 3.153Zm0 0"/><path fill="#ff3131" d="M87.066 65.25c-.168 1.29-2.546 3.2-2.625 4.5-.136 2.363 3.059 6.988 5.254 7.875 3.485 1.41 21.192.75 21.192.75 1.73 3.027-3.086 10.496-4.41 13.723-1.942 4.726-1.614 11 .843 14.222 3.004 3.938 8.516 4.2 8.63 2.438.82-12.778 3.265-16.32 6.538-18.848 1.969-1.515 3.688-2.844 4.594-5.156 5.582-14.215 9.719-17.504 12.082-17.504h1.574V34.945l-16.543-3.078s-20.535-1.945-27.004 0c-2.035.61-5.546 3.664-6.375 5.625-.472 1.13.184 3.793-.375 4.88-.828 1.608-4.32 3.624-4.316 5.812.004 1.558 1.82 4.257 1.688 5.812-.13 1.559-3.376 3.691-3.376 5.254.008 1.633 2.848 4.375 2.63 6Zm0 0"/><g clip-path="url(#a)"><path fill="#ff3131" d="M143.89 35.73a3.15 3.15 0 0 1 3.153-3.148h9.453a3.15 3.15 0 0 1 3.152 3.148v29.942a3.15 3.15 0 0 1-3.152 3.152h-9.453a3.15 3.15 0 0 1-3.152-3.152Zm0 0"/></g></svg>